<?xml version="1.0" standalone="no"?>
<!DOCTYPE svg PUBLIC "-//W3C//DTD SVG 20010904//EN"
 "http://www.w3.org/TR/2001/REC-SVG-20010904/DTD/svg10.dtd">
<svg version="1.0" xmlns="http://www.w3.org/2000/svg"
 width="3200.000000pt" height="3200.000000pt" viewBox="0 0 3200.000000 3200.000000"
 preserveAspectRatio="xMidYMid meet">
<metadata>
Created by potrace 1.11, written by Peter Selinger 2001-2013
</metadata>
<g transform="translate(0.000000,3200.000000) scale(0.100000,-0.100000)"
fill="#000000" stroke="none">
<path d="M25760 31681 c-228 -49 -422 -185 -569 -401 -75 -109 -98 -155 -116
-232 -18 -76 -20 -299 -4 -538 14 -220 14 -610 -1 -740 -26 -240 -136 -438
-374 -675 -169 -169 -290 -254 -566 -397 l-125 -65 -235 109 c-1130 524 -1375
611 -2335 826 -745 167 -885 178 -2320 178 -1027 1 -1443 -12 -1760 -52 -499
-63 -1335 -282 -1985 -519 -289 -105 -463 -179 -772 -326 -382 -182 -474 -196
-673 -99 -92 44 -367 226 -470 310 -284 232 -365 484 -365 1139 0 426 -24 710
-75 884 -48 165 -133 294 -272 409 -141 117 -222 155 -389 184 -139 24 -384
15 -549 -20 -580 -122 -1095 -507 -1427 -1068 -232 -393 -364 -828 -414 -1367
-10 -115 -7 -482 6 -621 47 -527 181 -992 431 -1495 160 -322 326 -573 613
-924 97 -118 174 -216 173 -217 -1 -2 -110 -50 -242 -107 -742 -323 -1555
-720 -2110 -1030 -933 -521 -1512 -974 -1810 -1418 -155 -229 -275 -597 -275
-838 0 -144 51 -347 140 -552 253 -589 913 -1081 1720 -1284 296 -74 533 -100
850 -92 396 10 529 39 1117 241 89 31 174 56 189 56 l27 0 -6 -97 c-8 -132
-41 -304 -68 -359 -42 -88 -88 -115 -649 -386 -1359 -657 -2669 -1786 -3486
-3005 -225 -335 -393 -640 -584 -1062 -134 -297 -185 -384 -272 -466 -142
-135 -466 -287 -778 -365 -550 -139 -1199 -106 -1699 84 -488 187 -769 470
-958 966 -132 348 -175 741 -113 1035 49 232 196 597 273 679 30 32 40 36 83
36 66 0 212 -24 369 -61 200 -48 286 -60 465 -66 384 -13 745 72 1120 262 485
247 893 660 1141 1154 103 207 166 391 218 643 227 1091 26 2113 -777 3963
-233 538 -417 953 -421 949 -2 -2 -14 -232 -27 -511 -55 -1194 -87 -1438 -235
-1751 -114 -242 -254 -393 -494 -531 -162 -93 -314 -150 -795 -301 -385 -121
-734 -276 -891 -394 -112 -85 -263 -244 -340 -359 -296 -442 -383 -994 -254
-1613 14 -65 25 -141 25 -169 0 -76 -42 -152 -166 -299 -159 -187 -255 -315
-343 -456 -263 -419 -415 -845 -488 -1370 -22 -159 -25 -702 -5 -850 71 -508
195 -922 394 -1314 303 -595 985 -1247 1633 -1560 253 -123 651 -272 865 -325
237 -58 598 -85 1160 -85 432 0 574 10 700 50 41 13 79 24 84 24 10 0 3 -295
-17 -740 -50 -1116 47 -4351 157 -5236 8 -60 11 -112 7 -116 -3 -3 -105 -52
-226 -108 -503 -232 -712 -364 -925 -586 -235 -245 -343 -482 -343 -759 0
-497 393 -951 1110 -1282 488 -227 1063 -350 1709 -368 109 -3 262 -8 339 -10
77 -2 277 -4 445 -4 l305 -1 44 -118 c123 -334 290 -580 611 -903 456 -458
1045 -859 1731 -1181 1655 -775 3818 -1228 6184 -1297 280 -9 1083 -6 1285 4
63 3 210 10 325 15 2047 98 4021 520 5526 1181 980 430 1698 925 2132 1470
321 402 459 684 508 1039 19 139 17 565 -4 702 -56 369 -188 655 -458 995
-175 220 -378 413 -675 644 -470 365 -935 653 -1306 810 l-128 54 2 1415 c2
1844 13 2508 57 3333 14 259 20 330 31 337 8 5 123 51 255 101 447 172 752
313 1060 489 997 573 1758 1364 2225 2315 288 585 452 1192 510 1890 14 157
13 605 0 770 -42 516 -128 1000 -316 1773 -198 813 -312 1316 -302 1341 2 5
77 -25 168 -66 301 -136 452 -190 662 -237 347 -78 738 -87 1098 -25 512 87
1031 317 1415 625 102 82 288 269 358 361 249 326 365 710 328 1083 -40 396
-196 698 -535 1036 -279 279 -615 521 -1160 839 -430 251 -877 479 -2315 1186
-223 110 -407 201 -409 204 -3 2 74 82 170 177 277 273 454 524 650 923 233
474 346 896 399 1495 13 150 17 593 6 740 -44 588 -270 1158 -630 1585 -340
404 -832 685 -1332 760 -136 20 -337 18 -445 -4z"/>
</g>
</svg>
