<?xml version="1.0" standalone="no"?>
<!DOCTYPE svg PUBLIC "-//W3C//DTD SVG 20010904//EN"
 "http://www.w3.org/TR/2001/REC-SVG-20010904/DTD/svg10.dtd">
<svg version="1.0" xmlns="http://www.w3.org/2000/svg"
 width="3378.000000pt" height="3378.000000pt" viewBox="0 0 3378.000000 3378.000000"
 preserveAspectRatio="xMidYMid meet">
<metadata>
Created by potrace 1.11, written by Peter Selinger 2001-2013
</metadata>
<g transform="translate(0.000000,3378.000000) scale(0.100000,-0.100000)"
fill="#000000" stroke="none">
<path d="M26660 30981 c-227 -48 -414 -179 -558 -389 -76 -111 -99 -157 -117
-234 -18 -75 -19 -280 -4 -518 14 -223 14 -631 -1 -760 -24 -225 -124 -414
-335 -638 -165 -175 -318 -287 -586 -428 l-162 -85 -404 186 c-992 457 -1240
543 -2178 753 -628 141 -760 157 -1410 172 -762 17 -2048 7 -2390 -20 -402
-31 -846 -119 -1440 -286 -614 -172 -1058 -339 -1680 -632 -358 -168 -456
-157 -837 99 -286 191 -389 291 -476 464 -88 176 -110 336 -122 885 -9 422
-12 486 -31 630 -38 293 -127 465 -322 625 -101 83 -181 126 -294 157 -67 19
-105 22 -278 22 -225 1 -322 -14 -530 -81 -1039 -336 -1698 -1471 -1634 -2818
32 -691 230 -1326 611 -1961 120 -201 232 -355 443 -614 96 -118 174 -221 173
-229 -2 -9 -114 -64 -268 -131 -675 -295 -1462 -675 -1955 -945 -1017 -555
-1630 -1025 -1940 -1486 -152 -226 -275 -596 -275 -830 0 -190 104 -510 240
-733 270 -448 778 -819 1395 -1020 352 -114 685 -163 1055 -153 387 10 526 41
1109 242 109 37 176 55 200 53 l36 -3 -2 -110 c-2 -133 -33 -312 -66 -374 -47
-93 -95 -122 -657 -393 -1356 -656 -2663 -1781 -3474 -2991 -228 -340 -394
-643 -586 -1066 -135 -300 -184 -383 -276 -471 -80 -76 -161 -126 -339 -211
-390 -186 -872 -271 -1355 -239 -664 43 -1206 273 -1495 633 -326 405 -497
1081 -395 1562 51 240 197 599 278 684 37 39 42 41 98 41 77 0 213 -22 394
-65 231 -53 287 -60 515 -59 150 0 239 5 310 17 954 163 1752 877 2019 1805
40 139 88 377 110 546 110 846 -62 1729 -595 3056 -99 248 -231 556 -485 1132
l-139 317 -7 -152 c-4 -84 -14 -300 -23 -482 -47 -998 -85 -1264 -226 -1563
-114 -243 -262 -402 -504 -541 -162 -93 -314 -150 -795 -301 -385 -121 -734
-276 -891 -394 -111 -84 -253 -235 -330 -350 -207 -308 -311 -669 -311 -1076
0 -186 14 -305 58 -520 32 -152 29 -231 -9 -305 -14 -27 -74 -108 -133 -179
-218 -257 -349 -445 -472 -676 -178 -334 -303 -733 -359 -1145 -22 -165 -25
-687 -5 -835 70 -507 194 -921 393 -1311 304 -597 976 -1240 1624 -1554 253
-122 708 -291 900 -334 220 -49 604 -75 1110 -75 430 -1 558 9 697 51 47 14
94 23 102 20 21 -8 21 -69 -1 -609 -36 -877 -16 -2329 52 -3913 31 -697 60
-1132 96 -1427 11 -90 28 -242 39 -338 71 -626 155 -823 445 -1039 226 -169
464 -282 774 -367 366 -101 710 -140 1140 -131 424 9 767 63 1110 176 237 78
412 168 634 323 98 69 133 89 155 86 l27 -3 7 -235 c12 -450 93 -728 292
-1000 226 -310 673 -570 1279 -744 426 -122 614 -144 1292 -153 601 -7 1012
12 1433 67 701 93 1236 287 1602 581 158 127 347 337 379 421 8 22 18 120 56
543 56 628 208 1502 370 2130 76 298 131 468 234 725 l89 225 33 0 33 0 47
-313 c79 -520 121 -1072 149 -1972 31 -993 55 -1181 185 -1456 193 -410 619
-726 1258 -933 326 -106 672 -166 1100 -191 98 -6 210 -15 250 -20 250 -33
843 13 1377 106 695 121 1250 343 1640 654 226 180 470 484 579 721 54 115 74
266 91 684 13 323 30 1256 30 1683 0 286 2 333 15 338 13 5 15 135 15 1083 0
1084 11 2000 30 2581 16 477 45 989 57 1001 5 5 136 59 289 118 355 138 455
182 689 296 1498 735 2541 1966 2920 3449 68 266 105 468 141 771 22 178 30
689 15 898 -34 467 -127 999 -297 1702 -201 828 -238 986 -279 1188 -49 238
-52 265 -31 273 7 3 98 -33 202 -80 223 -100 306 -133 434 -174 396 -126 856
-155 1290 -81 510 87 1040 321 1416 625 123 99 304 289 386 405 78 108 185
318 223 433 51 159 68 268 68 441 1 258 -40 433 -153 660 -92 185 -195 323
-379 506 -274 274 -613 518 -1155 834 -432 251 -844 462 -2313 1186 -332 163
-423 211 -423 226 0 11 61 77 150 162 262 249 464 530 654 910 244 487 355
893 418 1526 18 183 14 680 -6 850 -65 544 -287 1066 -619 1461 -334 396 -825
674 -1322 749 -135 20 -318 18 -425 -4z m427 -512 c257 -28 489 -144 759 -378
294 -255 519 -628 624 -1035 70 -274 95 -516 87 -845 -8 -317 -36 -524 -109
-816 -106 -423 -265 -787 -493 -1130 -128 -192 -239 -330 -390 -481 -137 -138
-185 -169 -255 -162 -64 6 -185 68 -255 130 -81 73 -209 228 -322 392 -180
262 -308 424 -517 652 -80 87 -145 162 -143 165 1 4 66 66 145 139 215 198
314 322 411 514 91 178 168 437 213 717 20 127 23 179 23 444 0 240 -4 323
-18 415 -42 265 -86 418 -194 669 -90 208 -120 294 -133 376 -23 150 44 216
239 235 118 11 223 11 328 -1z m-13947 -9 c200 -24 280 -81 280 -198 0 -75
-24 -137 -143 -370 -133 -261 -152 -326 -167 -570 -12 -207 -13 -756 0 -998
15 -294 41 -414 133 -620 95 -211 230 -401 394 -551 58 -54 126 -116 150 -138
l43 -40 -191 -245 c-306 -395 -466 -624 -649 -930 -154 -259 -209 -327 -254
-316 -67 17 -461 392 -620 591 -373 466 -599 995 -686 1605 -58 404 -45 980
31 1355 72 357 254 676 560 984 341 342 714 489 1119 441z m7920 -1950 c702
-25 898 -47 955 -104 40 -41 46 -87 56 -426 10 -399 24 -627 49 -830 129
-1029 523 -1940 1149 -2652 782 -889 1854 -1421 3131 -1552 80 -8 325 -25 545
-36 220 -12 402 -23 404 -26 2 -2 30 -210 63 -461 243 -1907 302 -2259 572
-3383 178 -745 261 -1195 313 -1710 25 -253 25 -874 0 -1085 -64 -525 -191
-943 -434 -1429 -131 -263 -174 -339 -185 -328 -6 6 -18 167 -29 359 -10 191
-26 404 -34 473 -108 830 -454 1370 -1140 1782 -60 37 -115 57 -115 43 0 -12
46 -70 143 -179 202 -227 352 -455 516 -784 197 -394 211 -473 211 -1187 0
-568 -16 -745 -81 -933 -46 -130 -200 -442 -276 -556 -80 -122 -253 -299 -398
-408 -966 -725 -2405 -1255 -4125 -1517 -449 -69 -1305 -117 -2520 -142 -819
-17 -985 -7 -2045 126 -1798 226 -3639 900 -4460 1634 -309 275 -503 642 -609
1149 -49 233 -60 358 -60 647 0 304 15 432 79 692 108 440 251 727 562 1130
130 169 203 272 203 290 0 7 -6 13 -14 13 -19 0 -341 -217 -431 -291 -295
-240 -505 -580 -636 -1028 -79 -272 -119 -509 -165 -991 -15 -157 -30 -288
-33 -292 -10 -11 -273 520 -330 662 -141 358 -214 665 -257 1080 -21 197 -30
829 -15 1087 24 436 53 577 393 1924 l191 755 266 43 c572 91 951 192 1828
485 255 85 465 151 467 148 2 -4 16 -47 31 -97 70 -234 186 -401 378 -546 94
-71 198 -122 302 -149 142 -36 237 -23 403 55 260 123 433 325 531 620 48 145
64 273 58 449 -6 176 -18 238 -93 478 l-56 177 149 163 c223 244 307 342 398
463 229 305 378 605 512 1030 105 337 221 895 257 1245 43 410 56 698 63 1370
7 789 -9 1261 -63 1785 -28 274 -40 509 -30 578 7 46 8 47 58 62 62 18 325 58
559 84 419 47 866 61 1844 55 396 -2 844 -8 995 -14z m6624 -3705 c245 -107
719 -324 727 -333 4 -4 12 -108 18 -232 14 -289 45 -428 134 -605 83 -167 283
-397 462 -532 194 -146 484 -315 696 -407 502 -216 1615 -526 1889 -526 126 0
145 -28 144 -215 0 -244 -76 -447 -249 -670 -70 -90 -239 -257 -330 -326 -239
-183 -517 -324 -778 -394 -189 -51 -379 -69 -737 -70 -393 0 -495 10 -669 67
-238 79 -673 313 -813 437 -54 48 -95 125 -103 191 -3 25 -17 139 -31 253 -14
114 -24 219 -22 231 3 23 5 23 243 -55 304 -100 381 -122 535 -153 439 -88
863 -44 1216 124 183 88 300 175 501 374 101 98 181 181 180 183 -2 2 -98 -32
-214 -76 -330 -123 -468 -153 -806 -172 -255 -14 -457 -2 -617 38 -212 52
-676 284 -898 450 -108 81 -212 190 -246 258 -24 47 -31 76 -38 163 -31 399
-186 1154 -343 1667 -59 191 -95 339 -95 389 0 36 1 38 26 32 15 -4 113 -45
218 -91z m-16931 -907 c226 -211 390 -325 657 -458 69 -35 163 -77 210 -95 88
-34 320 -98 401 -110 78 -12 76 -2 50 -197 -48 -365 -75 -442 -202 -569 -108
-108 -395 -294 -596 -385 -168 -77 -378 -136 -603 -171 -141 -22 -506 -24
-650 -5 -233 32 -419 87 -611 178 -66 32 -122 54 -126 50 -12 -12 46 -116 95
-168 151 -161 540 -408 752 -477 229 -74 570 -89 909 -41 182 25 242 40 471
115 107 35 228 73 267 84 68 18 74 19 82 3 18 -36 22 -116 10 -234 -21 -221
-57 -322 -155 -427 -76 -83 -186 -154 -395 -255 -348 -170 -631 -232 -1105
-243 -440 -10 -627 25 -975 181 -248 112 -475 272 -696 491 -276 274 -347 441
-346 810 1 140 4 184 22 249 97 365 677 907 1425 1332 183 104 918 492 933
493 7 1 86 -68 176 -151z m-4828 -1984 c67 -67 167 -400 210 -697 39 -275 48
-438 42 -775 -5 -325 -18 -461 -62 -672 -78 -368 -248 -795 -417 -1049 -45
-67 -230 -261 -249 -261 -4 0 19 66 52 146 33 80 69 180 80 222 49 192 83 486
99 862 5 140 12 280 14 310 5 54 3 52 -105 -160 -159 -313 -275 -466 -587
-772 -351 -344 -843 -717 -948 -718 -79 0 -54 109 93 403 273 547 421 755 847
1195 119 123 225 237 237 253 19 27 19 29 2 29 -26 0 -199 -107 -310 -191
-328 -250 -741 -681 -937 -979 -35 -52 -94 -153 -131 -225 -89 -170 -134 -245
-147 -245 -15 0 -3 116 22 232 73 335 308 791 556 1083 35 41 140 145 234 231
94 87 168 159 166 161 -6 7 -360 -36 -446 -54 -166 -34 -354 -118 -486 -216
-126 -94 -179 -155 -395 -452 l-51 -70 6 50 c23 188 99 408 195 565 83 134
107 212 80 262 -10 19 -9 20 12 13 58 -20 121 -6 234 49 143 71 274 120 575
212 279 86 563 187 686 244 121 56 224 131 345 250 117 115 196 216 265 336
42 75 62 130 113 319 12 44 29 90 37 103 17 26 46 29 69 6z m5442 -2971 c-15
-181 -77 -457 -128 -560 -36 -74 -97 -132 -191 -179 -142 -71 -431 -280 -628
-453 -464 -407 -689 -689 -920 -1156 -179 -362 -282 -707 -337 -1130 -25 -200
-25 -693 0 -890 62 -473 185 -869 407 -1310 203 -403 449 -744 762 -1056 301
-301 701 -590 1078 -779 640 -321 1307 -462 2029 -430 574 26 994 119 1651
364 151 57 300 109 329 116 104 24 170 17 391 -43 698 -191 1751 -392 2280
-436 715 -60 2426 -70 3350 -21 423 23 639 47 1085 121 729 121 1083 195 1482
310 94 27 177 49 182 49 14 0 15 -262 0 -313 -23 -86 -92 -136 -426 -314 -263
-139 -355 -194 -517 -307 -624 -437 -1001 -1003 -1126 -1690 -41 -226 -45
-305 -45 -826 0 -605 15 -832 76 -1165 182 -989 608 -1742 1210 -2141 101 -66
276 -156 415 -212 105 -42 205 -103 224 -136 14 -24 13 -29 -9 -71 -25 -47
-194 -220 -291 -298 -247 -198 -502 -334 -825 -442 -334 -112 -681 -183 -1130
-232 -204 -22 -913 -25 -1130 -5 -356 34 -603 84 -930 189 -625 200 -948 492
-1010 913 -17 110 -38 518 -60 1115 -34 959 -73 1412 -175 2054 -55 350 -80
546 -87 703 l-6 138 27 38 c15 22 38 50 51 62 14 13 25 31 25 40 0 22 135 144
180 163 8 3 67 49 130 102 227 190 469 362 635 451 104 55 100 52 92 60 -10
10 -201 -35 -308 -72 -445 -155 -1044 -504 -1269 -740 -565 -593 -953 -1745
-1135 -3369 -67 -597 -113 -892 -154 -980 -66 -143 -268 -274 -612 -398 -434
-157 -849 -238 -1424 -279 -239 -17 -1061 -17 -1255 0 -454 40 -810 103 -1049
187 -301 105 -626 323 -778 522 l-56 73 -33 165 c-70 348 -88 506 -344 3065
-139 1381 -181 1834 -196 2078 -3 68 -10 120 -14 115 -26 -27 -76 -489 -90
-834 -12 -287 -29 -406 -61 -445 -9 -11 -15 -11 -40 1 -74 39 -420 356 -602
553 -687 741 -1071 1709 -1242 3122 -40 334 -85 652 -94 668 -19 35 -44 -109
-60 -358 -30 -437 -22 -989 19 -1317 100 -810 368 -1518 809 -2135 215 -302
396 -505 868 -973 l393 -390 0 -870 0 -870 -125 -140 c-172 -192 -299 -298
-495 -413 -204 -120 -368 -178 -604 -212 -245 -35 -408 -43 -751 -37 -472 9
-769 37 -925 88 -169 55 -426 183 -543 271 -211 158 -255 321 -311 1153 l-23
350 60 65 c34 36 142 151 240 255 205 217 317 353 422 510 222 334 342 657
401 1085 21 155 30 658 15 828 -63 692 -326 1305 -803 1878 -51 61 -163 187
-249 280 -86 93 -168 183 -181 199 l-25 30 48 630 c77 1002 129 1395 244 1840
130 504 362 1022 677 1515 474 741 1207 1497 2053 2117 417 305 889 599 1269
789 93 46 180 84 194 84 l25 0 -6 -77z m-8473 -1134 c103 -108 101 -126 -37
-345 -218 -349 -307 -645 -324 -1072 -23 -628 164 -1197 546 -1653 454 -543
1206 -841 2059 -816 108 3 242 13 297 22 296 47 622 143 921 271 131 56 140
56 154 2 13 -48 9 -122 -26 -488 -64 -670 -91 -807 -165 -862 -131 -98 -1138
-103 -1724 -8 -274 44 -642 181 -942 350 -567 321 -1014 783 -1301 1347 -323
637 -418 1319 -276 1996 80 380 281 824 510 1127 84 110 157 188 187 199 35
13 53 2 121 -70z"/>
<path d="M24160 22065 c-150 -30 -254 -89 -366 -207 -142 -150 -242 -340 -300
-572 -36 -140 -44 -378 -19 -527 54 -324 213 -579 466 -749 144 -96 246 -125
403 -117 311 16 614 249 740 569 36 91 73 251 87 378 55 493 -212 1045 -577
1188 -125 50 -299 64 -434 37z"/>
<path d="M15969 16339 c-210 -21 -461 -170 -568 -337 -81 -126 -78 -254 10
-429 68 -137 81 -146 62 -46 -19 99 -12 159 28 233 31 58 201 259 226 268 9 2
9 -9 -3 -45 -52 -169 -55 -241 -14 -398 82 -311 382 -666 606 -716 138 -31
243 40 338 228 77 153 108 404 72 582 -65 318 -275 576 -526 644 -74 21 -140
25 -231 16z"/>
<path d="M23788 16330 c-267 -48 -461 -233 -542 -514 -104 -357 -4 -807 204
-920 44 -24 65 -29 122 -29 62 0 79 5 162 46 273 136 508 521 509 837 0 105
-18 168 -68 234 -35 45 -19 46 55 1 120 -73 177 -164 205 -324 18 -108 38
-154 63 -149 37 7 72 129 72 248 -1 249 -190 471 -470 550 -84 23 -240 34
-312 20z"/>
</g>
</svg>
