<svg xmlns="http://www.w3.org/2000/svg" width="3324" height="957" viewBox="0 0 3324 957">
  <defs>
    <style>
      .cls-1 {
        fill: #fff;
        fill-rule: evenodd;
      }
    </style>
  </defs>
  <path id="moo" class="cls-1" d="M1340.2,325.7q0-85.5-28.5-147.25-28.5-61.734-76.95-101.64-48.465-39.891-114.95-57.953Q1053.275,0.812,979.2.8q-96.913,0-168.156,26.609T684.7,93.906Q576.4,0.813,403.5.8A637.9,637.9,0,0,0,223,26.453Q135.579,52.094,78.594,90.094,38.7,116.719,19.7,146.156T0.7,219.3V829.2q0,62.719,32.3,87.406T131.8,941.3q36.093,0,64.609-5.688,28.5-5.718,45.594-9.515V236.406Q268.578,221.219,308.5,206q39.891-15.187,87.406-15.2Q464.3,190.8,508,225q43.688,34.218,43.7,110.2v494q0,62.719,31.344,87.406T682.8,941.3a336.74,336.74,0,0,0,63.656-5.688q29.438-5.718,44.641-9.515V306.7a254.463,254.463,0,0,0-5.688-53.2q32.3-28.5,75.047-45.594A235.648,235.648,0,0,1,948.8,190.8q68.391,0,110.2,34.2,41.79,34.218,41.8,110.2v494q0,62.719,31.34,87.406,31.365,24.679,99.77,24.688a336.689,336.689,0,0,0,63.64-5.688q29.43-5.718,44.65-9.515V325.7Zm981.32-44.641q-33.255-88.359-95-151.062T2079.27,34.047q-85.5-33.234-190-33.25-104.505,0-190,33.25t-147.25,95q-61.755,61.758-95,150.109T1423.77,477.7q0,112.1,33.25,200.453t94.05,150.094q60.795,61.758,146.3,95t191.9,33.25q106.41,0,191.91-33.25,85.5-33.234,146.3-95.953,60.8-62.7,94.04-151.047,33.24-88.336,33.25-198.547Q2354.77,369.423,2321.52,281.062Zm-270.75-15.2q58.905,75.048,58.91,211.844t-57.95,211.844q-57.975,75.046-162.46,75.047-104.505,0-162.45-74.094t-57.95-212.8q0-136.78,58.9-211.844,58.9-75.046,161.5-75.062Q1991.855,190.8,2050.77,265.859Zm1239.74,15.2q-33.255-88.359-95-151.062T3048.26,34.047q-85.5-33.234-190-33.25-104.505,0-190,33.25t-147.25,95q-61.755,61.758-95,150.109T2392.76,477.7q0,112.1,33.25,200.453,33.225,88.359,94.04,150.094,60.81,61.758,146.3,95t191.91,33.25q106.395,0,191.9-33.25,85.5-33.234,146.3-95.953,60.795-62.7,94.05-151.047,33.225-88.336,33.25-198.547Q3323.76,369.423,3290.51,281.062Zm-270.75-15.2q58.89,75.048,58.9,211.844t-57.95,211.844q-57.96,75.046-162.45,75.047-104.505,0-162.46-74.094t-57.95-212.8q0-136.78,58.91-211.844,58.89-75.046,161.5-75.062Q2960.845,190.8,3019.76,265.859Z"/>
</svg>
